<svg width="22" height="22" viewBox="0 0 22 22" fill="none" xmlns="http://www.w3.org/2000/svg">
<path d="M11.0007 8.24967C10.2713 8.24967 9.57183 8.53941 9.05611 9.05513C8.54038 9.57086 8.25065 10.2703 8.25065 10.9997C8.25065 11.729 8.54038 12.4285 9.05611 12.9442C9.57183 13.4599 10.2713 13.7497 11.0007 13.7497C11.73 13.7497 12.4295 13.4599 12.9452 12.9442C13.4609 12.4285 13.7507 11.729 13.7507 10.9997C13.7507 10.2703 13.4609 9.57086 12.9452 9.05513C12.4295 8.53941 11.73 8.24967 11.0007 8.24967ZM11.0007 6.41634C12.2162 6.41634 13.382 6.89923 14.2416 7.75877C15.1011 8.61831 15.584 9.7841 15.584 10.9997C15.584 12.2153 15.1011 13.381 14.2416 14.2406C13.382 15.1001 12.2162 15.583 11.0007 15.583C9.78508 15.583 8.61929 15.1001 7.75974 14.2406C6.9002 13.381 6.41732 12.2153 6.41732 10.9997C6.41732 9.7841 6.9002 8.61831 7.75974 7.75877C8.61929 6.89923 9.78508 6.41634 11.0007 6.41634ZM16.959 6.18717C16.959 6.49107 16.8383 6.78252 16.6234 6.9974C16.4085 7.21229 16.117 7.33301 15.8132 7.33301C15.5093 7.33301 15.2178 7.21229 15.0029 6.9974C14.788 6.78252 14.6673 6.49107 14.6673 6.18717C14.6673 5.88328 14.788 5.59183 15.0029 5.37695C15.2178 5.16206 15.5093 5.04134 15.8132 5.04134C16.117 5.04134 16.4085 5.16206 16.6234 5.37695C16.8383 5.59183 16.959 5.88328 16.959 6.18717ZM11.0007 3.66634C8.73282 3.66634 8.36248 3.67276 7.3074 3.71951C6.58873 3.75342 6.10657 3.84967 5.65923 4.02384C5.28488 4.16128 4.94645 4.38158 4.66923 4.66826C4.38232 4.94546 4.16172 5.28388 4.0239 5.65826C3.84973 6.10742 3.75348 6.58867 3.72048 7.30642C3.67282 8.31842 3.66732 8.67226 3.66732 10.9997C3.66732 13.2675 3.67373 13.6378 3.72048 14.6929C3.7544 15.4107 3.85065 15.8938 4.0239 16.3402C4.17973 16.7389 4.36307 17.0258 4.6674 17.3302C4.97632 17.6382 5.26323 17.8224 5.6574 17.9746C6.11023 18.1497 6.5924 18.2468 7.3074 18.2798C8.3194 18.3275 8.67323 18.333 11.0007 18.333C13.2685 18.333 13.6388 18.3266 14.6939 18.2798C15.4107 18.2459 15.8938 18.1497 16.3412 17.9764C16.7149 17.8383 17.0532 17.6184 17.3312 17.3329C17.6401 17.024 17.8243 16.7371 17.9765 16.3429C18.1507 15.891 18.2478 15.4079 18.2808 14.6929C18.3285 13.6809 18.334 13.3271 18.334 10.9997C18.334 8.73184 18.3276 8.36151 18.2808 7.30642C18.2469 6.58959 18.1507 6.10559 17.9765 5.65826C17.8383 5.28426 17.6181 4.94597 17.3321 4.66826C17.055 4.3812 16.7165 4.16058 16.3421 4.02292C15.8929 3.84876 15.4107 3.75251 14.6939 3.71951C13.6819 3.67184 13.3281 3.66634 11.0007 3.66634ZM11.0007 1.83301C13.4912 1.83301 13.802 1.84217 14.7792 1.88801C15.7554 1.93384 16.42 2.08692 17.0048 2.31426C17.6098 2.54709 18.1195 2.86242 18.6292 3.37117C19.0953 3.82941 19.4559 4.38371 19.6861 4.99551C19.9125 5.57942 20.0665 6.24492 20.1123 7.22117C20.1554 8.19834 20.1673 8.50909 20.1673 10.9997C20.1673 13.4903 20.1582 13.801 20.1123 14.7782C20.0665 15.7544 19.9125 16.419 19.6861 17.0038C19.4566 17.616 19.0958 18.1704 18.6292 18.6282C18.1708 19.0941 17.6165 19.4548 17.0048 19.6851C16.4209 19.9115 15.7554 20.0655 14.7792 20.1113C13.802 20.1544 13.4912 20.1663 11.0007 20.1663C8.51007 20.1663 8.19932 20.1572 7.22215 20.1113C6.2459 20.0655 5.58132 19.9115 4.99648 19.6851C4.38445 19.4554 3.83005 19.0947 3.37215 18.6282C2.90594 18.17 2.54525 17.6157 2.31523 17.0038C2.0879 16.4199 1.93482 15.7544 1.88898 14.7782C1.8459 13.801 1.83398 13.4903 1.83398 10.9997C1.83398 8.50909 1.84315 8.19834 1.88898 7.22117C1.93482 6.24401 2.0879 5.58034 2.31523 4.99551C2.54462 4.38334 2.90539 3.82889 3.37215 3.37117C3.83018 2.9048 4.38454 2.54409 4.99648 2.31426C5.58132 2.08692 6.24498 1.93384 7.22215 1.88801C8.19932 1.84492 8.51007 1.83301 11.0007 1.83301Z" fill="#1A191E"/>
</svg>
