<svg width="22" height="22" viewBox="0 0 22 22" fill="none" xmlns="http://www.w3.org/2000/svg">
<path d="M20.3153 5.18436C19.6155 5.49391 18.8733 5.69721 18.1134 5.78752C18.9144 5.3085 19.5138 4.55462 19.8001 3.66636C19.0484 4.11369 18.2244 4.42719 17.3654 4.59677C16.7885 3.97947 16.0238 3.57007 15.1902 3.43222C14.3565 3.29438 13.5007 3.43581 12.7558 3.83452C12.0108 4.23324 11.4185 4.8669 11.0708 5.637C10.7231 6.4071 10.6396 7.27049 10.8333 8.09294C9.30896 8.01654 7.81775 7.62042 6.45646 6.9303C5.09516 6.24018 3.89423 5.27148 2.93161 4.08711C2.59088 4.67235 2.41182 5.33765 2.41278 6.01486C2.41278 7.34402 3.08928 8.51827 4.11778 9.20577C3.50912 9.18661 2.91386 9.02224 2.38161 8.72636V8.77402C2.38179 9.65925 2.68811 10.5172 3.24864 11.2023C3.80916 11.8875 4.58938 12.3577 5.45703 12.5333C4.89201 12.6864 4.29956 12.709 3.72453 12.5993C3.96915 13.3612 4.44595 14.0276 5.08815 14.5051C5.73035 14.9826 6.50581 15.2473 7.30594 15.2622C6.51072 15.8867 5.60019 16.3484 4.62642 16.6208C3.65264 16.8933 2.63473 16.9711 1.63086 16.8499C3.38325 17.9768 5.4232 18.5751 7.50669 18.5732C14.5586 18.5732 18.415 12.7313 18.415 7.66486C18.415 7.49986 18.4104 7.33302 18.4031 7.16986C19.1537 6.62734 19.8016 5.95529 20.3162 5.18527L20.3153 5.18436Z" fill="#1A191E"/>
</svg>
